Coordinates
version=1
nRows=19
nColumns=63
inDegrees=yes

Units are S.I. units (second, meters, Newtons, ...)
If the header above contains a line with 'inDegrees', this indicates whether rotational values are in degrees (yes) or radians (no).

endheader
time	pelvis_tilt	pelvis_list	pelvis_rotation	pelvis_tx	pelvis_ty	pelvis_tz	hip_flexion_r	hip_adduction_r	hip_rotation_r	knee_angle_r	knee_angle_r_beta	ankle_angle_r	subtalar_angle_r	mtp_angle_r	hip_flexion_l	hip_adduction_l	hip_rotation_l	knee_angle_l	knee_angle_l_beta	ankle_angle_l	subtalar_angle_l	mtp_angle_l	L5_S1_Flex_Ext	L5_S1_Lat_Bending	L5_S1_axial_rotation	L4_L5_Flex_Ext	L4_L5_Lat_Bending	L4_L5_axial_rotation	L3_L4_Flex_Ext	L3_L4_Lat_Bending	L3_L4_axial_rotation	L2_L3_Flex_Ext	L2_L3_Lat_Bending	L2_L3_axial_rotation	L1_L2_Flex_Ext	L1_L2_Lat_Bending	L1_L2_axial_rotation	L1_T12_Flex_Ext	L1_T12_Lat_Bending	L1_T12_axial_rotation	Abs_r3	Abs_r2	Abs_r1	Abs_t1	Abs_t2	neck_flexion	neck_bending	neck_rotation	arm_flex_r	arm_add_r	arm_rot_r	elbow_flex_r	pro_sup_r	wrist_flex_r	wrist_dev_r	arm_flex_l	arm_add_l	arm_rot_l	elbow_flex_l	pro_sup_l	wrist_flex_l	wrist_dev_l
3.236364	5.997229	-55.669292	92.669191	0.217371	0.238218	1.144508	100.976556	9.049636	5.702124	56.265482	0.982018	44.530954	-16.858461	0.000000	101.075062	-4.898064	8.345218	62.913809	1.098053	1.251492	-14.092067	0.000000	0.039504	-2.132913	0.498854	0.073363	-2.836774	0.530032	0.064901	-5.185964	0.530032	0.045149	-5.185964	0.436497	0.036684	-4.349435	0.405319	0.022573	-3.303882	0.374140	0.282174	-24.127934	2.774475	0.000000	0.000000	18.360213	17.885132	-38.418522	76.512549	-21.083706	15.639429	61.557604	89.402209	-31.989999	-13.427881	79.314921	0.116880	146.563397	1.023916	1.706177	-56.121949	-10.509850
3.254545	4.418801	-55.092906	91.952296	0.214858	0.239851	1.141282	98.853302	8.428037	6.570394	55.615108	0.970667	43.855901	-16.248025	0.000000	99.496465	-4.749924	6.312749	61.283819	1.069604	9.674039	-11.180836	0.000000	0.010201	-2.200633	0.706066	0.018945	-2.926842	0.750195	0.016760	-5.350619	0.750195	0.011659	-5.350619	0.617808	0.009473	-4.487531	0.573679	0.005829	-3.408781	0.529550	0.072867	-24.894001	3.926927	0.000000	0.000000	17.653128	18.321232	-38.182069	76.669430	-22.795905	17.143508	60.387620	89.352476	-32.240066	-11.828425	77.703228	1.476388	150.699851	0.387133	1.141057	-60.005149	-10.308669
3.272727	2.771167	-54.492741	91.063419	0.212070	0.241558	1.137838	96.770290	7.867429	7.392590	54.999465	0.959922	43.112274	-15.575402	0.000000	97.732335	-4.702984	4.197410	59.520176	1.038823	19.495545	-8.495060	0.000000	-0.020427	-2.266113	0.974703	-0.037936	-3.013930	1.035622	-0.033560	-5.509827	1.035622	-0.023347	-5.509827	0.852865	-0.018969	-4.621057	0.791946	-0.011672	-3.510209	0.731027	-0.145911	-25.634721	5.421004	0.000000	0.000000	17.058199	18.702514	-38.146685	76.599474	-24.618236	18.712964	59.122551	89.297555	-32.725077	-10.391878	76.270813	3.008544	154.159274	-0.041490	0.726141	-63.625763	-10.620975
3.290909	1.089371	-53.883522	89.959932	0.209301	0.243270	1.134249	94.789885	7.466598	8.147906	54.448434	0.950304	42.293886	-14.870978	0.000000	95.858026	-4.967522	1.835913	57.762096	1.008139	30.278832	-6.175787	0.000000	-0.049628	-2.327594	1.323755	-0.092164	-3.095700	1.406490	-0.081533	-5.659311	1.406490	-0.056720	-5.659311	1.158286	-0.046084	-4.746429	1.075551	-0.028357	-3.605443	0.992817	-0.354486	-26.330205	7.362330	0.000000	0.000000	16.594197	18.994874	-38.293366	76.309671	-26.549058	20.221975	57.793514	89.247267	-33.295023	-9.136857	75.002563	4.714301	156.866515	-0.237147	0.732491	-66.868120	-11.151140
3.309091	-0.477259	-53.261863	88.777204	0.206901	0.244926	1.130596	92.945918	7.263000	8.788756	53.997241	0.942430	41.426674	-14.176070	0.000000	94.015045	-5.749086	-0.890920	56.239930	0.981572	41.299202	-4.062699	0.000000	-0.078440	-2.378178	1.756536	-0.145671	-3.162976	1.866320	-0.128869	-5.782301	1.866320	-0.089649	-5.782301	1.536969	-0.072839	-4.849580	1.427186	-0.044821	-3.683797	1.317402	-0.560289	-26.902422	9.769327	0.000000	0.000000	16.254475	19.187277	-38.624554	75.835560	-28.601673	21.554600	56.423371	89.206874	-33.788505	-8.014106	73.899206	6.633522	159.270012	-0.272790	0.777420	-69.464566	-11.818680
3.327273	-1.587889	-52.645103	87.893273	0.204862	0.246363	1.127286	91.324222	7.153185	9.179069	53.679871	0.936890	40.539584	-13.506596	0.000000	92.636147	-6.734228	-3.266183	55.361361	0.966238	50.450258	-2.223324	0.000000	-0.109013	-2.394846	2.254050	-0.202449	-3.185145	2.394928	-0.179098	-5.822828	2.394928	-0.124592	-5.822828	1.972294	-0.101230	-4.883569	1.831416	-0.062290	-3.709616	1.690538	-0.778672	-27.090974	12.536351	0.000000	0.000000	16.017932	19.210115	-39.075667	75.294123	-30.825415	22.690258	54.998501	89.174684	-34.069563	-6.929741	72.969904	8.769546	161.297756	-0.181208	0.863175	-71.265203	-12.600541
3.345455	-2.703031	-52.082311	87.099139	0.202227	0.247530	1.124874	90.011104	6.937071	9.563911	53.569679	0.934967	39.647011	-12.795495	0.000000	91.641335	-6.773290	-4.363171	54.838599	0.957114	54.802563	-0.674952	0.000000	-0.145542	-2.397668	2.774137	-0.270286	-3.188898	2.947520	-0.239111	-5.829690	2.947520	-0.166340	-5.829690	2.427370	-0.135150	-4.889325	2.253986	-0.083163	-3.713988	2.080603	-1.039591	-27.122900	15.428916	0.000000	0.000000	15.891754	19.042794	-39.688845	74.829939	-33.230078	23.631586	53.514744	89.147614	-34.030778	-5.832973	72.284924	11.130001	162.919932	0.004206	0.964527	-72.197317	-13.490345
3.363636	-3.557324	-51.477305	86.354846	0.199703	0.248085	1.123098	88.978712	6.882184	9.737447	53.695747	0.937168	38.799152	-12.125612	0.000000	90.869110	-6.649040	-4.654596	54.815023	0.956703	56.672729	0.633774	0.000000	-0.182211	-2.370594	3.356764	-0.338384	-3.152890	3.566562	-0.299354	-5.763863	3.566562	-0.208249	-5.763863	2.937169	-0.169201	-4.834116	2.727371	-0.104115	-3.672051	2.517573	-1.301514	-26.816637	18.669316	0.000000	0.000000	15.738873	18.698321	-40.371993	74.523284	-35.760619	24.583454	51.931636	89.118899	-33.644450	-4.745460	71.761118	13.717848	164.412417	0.074863	0.961596	-72.100953	-14.432349
3.381818	-3.841122	-50.797671	85.989322	0.197043	0.248034	1.122176	88.228467	6.871770	9.520643	54.030126	0.943004	38.054022	-11.509694	0.000000	90.424182	-6.241924	-3.950538	55.356478	0.966153	55.657355	1.763464	0.000000	-0.219842	-2.285286	3.967448	-0.408268	-3.039431	4.215413	-0.361178	-5.556445	4.215413	-0.251257	-5.556445	3.471517	-0.204145	-4.660156	3.223551	-0.125618	-3.539909	2.975586	-1.570309	-25.851617	22.065754	0.000000	0.000000	15.527353	18.079336	-41.070060	74.598317	-38.359809	25.982309	50.170921	89.105948	-32.950098	-3.720905	71.413183	16.460466	165.415539	0.105824	0.940397	-71.319935	-15.659995
3.400000	-3.225476	-50.080026	86.369546	0.194104	0.247386	1.122375	87.803987	6.781502	8.800373	54.526026	0.951659	37.457113	-10.988275	0.000000	90.490928	-5.466415	-2.202660	56.508135	0.986253	51.408645	2.765771	0.000000	-0.260313	-2.119881	4.566984	-0.483427	-2.819441	4.852420	-0.427668	-5.154278	4.852420	-0.297511	-5.154278	3.996111	-0.241726	-4.322861	3.710674	-0.148743	-3.283695	3.425238	-1.859388	-23.980513	25.400195	0.000000	0.000000	15.242612	17.112169	-41.713297	75.149476	-40.933348	28.056295	48.152592	89.181218	-32.026311	-2.755572	71.238009	19.272260	165.850336	0.118498	0.909623	-70.330560	-17.264640
3.418182	-1.772641	-49.243410	87.206686	0.192362	0.246173	1.122758	87.554279	6.985799	7.581119	55.123690	0.962090	37.110478	-10.616776	0.000000	90.594376	-6.087814	-1.538004	57.968009	1.011733	49.316340	3.541540	0.000000	-0.296359	-1.894418	5.181518	-0.550368	-2.519576	5.505362	-0.486888	-4.606089	5.505362	-0.338709	-4.606089	4.533828	-0.275199	-3.863098	4.209983	-0.169339	-2.934454	3.886138	-2.116862	-21.430039	28.818046	0.000000	0.000000	14.799207	16.022963	-42.422040	75.863570	-43.287995	30.450138	46.009342	89.427216	-30.950318	-1.895235	71.269279	22.015387	166.440599	0.120236	0.879897	-69.870815	-18.667561
3.436364	0.158563	-48.359003	88.391299	0.190488	0.244279	1.123850	87.504974	7.208174	6.049361	55.846623	0.974707	37.046319	-10.268558	0.000000	90.617760	-6.695067	-0.784632	59.295739	1.034906	48.108406	3.948272	0.000000	-0.329145	-1.617505	5.764160	-0.611255	-2.151282	6.124420	-0.540752	-3.932803	6.124420	-0.376180	-3.932803	5.043640	-0.305644	-3.298417	4.683380	-0.188073	-2.505516	4.323120	-2.351050	-18.297545	32.058527	0.000000	0.000000	14.179300	14.692608	-43.040993	76.762611	-45.433157	33.126683	43.731041	89.787012	-29.793425	-1.179934	71.557293	24.655574	166.993969	0.116475	0.860912	-69.810979	-19.788366
3.454545	2.668405	-47.397386	90.064917	0.188294	0.241737	1.125698	87.576435	7.351752	4.115764	56.634601	0.988460	37.308633	-9.831491	0.000000	90.750400	-6.934001	0.757530	60.597639	1.057628	47.315632	3.866704	0.000000	-0.354933	-1.276813	6.302614	-0.659146	-1.698161	6.696527	-0.583120	-3.104443	6.696527	-0.405653	-3.104443	5.514787	-0.329591	-2.603677	5.120874	-0.202809	-1.977783	4.726961	-2.535252	-14.443565	35.053249	0.000000	0.000000	13.312808	13.078112	-43.416670	77.757160	-47.407459	35.842254	41.438189	90.176162	-28.490791	-0.464818	72.129535	27.181574	167.164611	0.110618	0.848729	-69.812680	-20.830676
3.472727	5.391287	-46.527361	92.053842	0.186421	0.238531	1.128246	87.837763	7.387335	2.091682	57.485000	1.003303	37.869114	-9.311835	0.000000	91.112643	-7.003083	2.532814	61.871328	1.079858	46.983480	4.084913	0.000000	-0.376485	-0.923747	6.770866	-0.699170	-1.228583	7.194045	-0.618527	-2.245998	7.194045	-0.430285	-2.245998	5.924508	-0.349604	-1.883704	5.501329	-0.215124	-1.430884	5.078149	-2.689195	-10.449609	37.657525	0.000000	0.000000	12.302960	11.438137	-43.623424	78.657617	-49.101739	38.357964	39.170752	90.178332	-27.137155	0.133296	73.046041	29.506980	167.126323	0.104259	0.838802	-69.823646	-21.803219
3.490909	8.176111	-45.821903	94.313283	0.185021	0.234675	1.131432	88.296564	7.260995	0.090580	58.378274	1.018893	38.683504	-8.681435	0.000000	91.787899	-6.867929	4.366855	63.126134	1.101759	46.857257	4.326970	0.000000	-0.390467	-0.579198	7.149344	-0.725136	-0.770333	7.596178	-0.641498	-1.408262	7.596178	-0.446264	-1.408262	6.255676	-0.362587	-1.181100	5.808842	-0.223113	-0.897178	5.362008	-2.789064	-6.552003	39.762508	0.000000	0.000000	11.193574	9.872816	-43.692249	79.175692	-50.426676	39.574917	37.056683	90.597011	-25.586732	0.909080	74.328602	31.585823	166.876251	0.098196	0.830676	-69.835332	-22.683360
3.509091	10.630386	-45.292963	96.514334	0.184321	0.230351	1.135118	88.905280	6.986983	-1.652029	59.290930	1.034822	39.665204	-7.934936	0.000000	92.709491	-6.542642	6.028033	64.307615	1.122380	46.812910	4.362534	0.000000	-0.398452	-0.278178	7.430357	-0.739965	-0.369977	7.894755	-0.654616	-0.676363	7.894755	-0.455391	-0.676363	6.501563	-0.370002	-0.567261	6.037165	-0.227675	-0.430898	5.572768	-2.846101	-3.146809	41.325418	0.000000	0.000000	10.070625	8.493179	-43.683983	79.515947	-51.399245	40.833806	35.045766	89.938435	-24.164771	1.518817	76.023604	33.331325	166.449869	0.093219	0.825744	-69.844428	-23.420656
3.527273	12.626397	-45.027153	98.572462	0.184435	0.225585	1.139224	89.709256	6.554513	-3.035189	60.221209	1.051058	40.756437	-7.056295	0.000000	93.877495	-6.041488	7.418778	65.385212	1.141187	46.753527	4.056684	0.000000	-0.399090	-0.041237	7.608421	-0.741150	-0.054845	8.083947	-0.655665	-0.100263	8.083947	-0.456120	-0.100263	6.657368	-0.370595	-0.084090	6.181842	-0.228040	-0.063875	5.706315	-2.850659	-0.466476	42.315753	0.000000	0.000000	9.042560	7.371883	-43.683198	79.378008	-52.007989	41.036833	33.259098	89.288763	-22.860926	2.284779	78.116700	34.744059	165.893958	0.089415	0.821436	-69.849658	-23.940863
3.545455	14.265952	-44.902650	100.515591	0.185163	0.220645	1.143555	90.580765	5.974057	-4.169886	61.113170	1.066626	41.937576	-6.054234	0.000000	95.173896	-5.360304	8.633284	66.366373	1.158312	46.602423	3.328512	0.000000	-0.394344	0.148940	7.686277	-0.732336	0.198090	8.166670	-0.647867	0.362132	8.166670	-0.450695	0.362132	6.725493	-0.366187	0.303718	6.245100	-0.225328	0.230708	5.764708	-2.816757	1.684837	42.748768	0.000000	0.000000	8.130542	6.430761	-43.583151	79.118139	-52.251591	42.019136	31.628801	87.156947	-21.692233	2.814433	80.556610	35.779976	165.159811	0.086552	0.816164	-69.851432	-24.174719
3.563636	15.592515	-44.921685	102.333665	0.186412	0.215731	1.147932	91.483665	5.279228	-5.089201	61.920689	1.080720	43.189620	-4.950369	0.000000	96.538790	-4.540684	9.692585	67.245074	1.173648	46.320148	2.120858	0.000000	-0.384348	0.295648	7.672280	-0.713773	0.393212	8.151798	-0.631445	0.718839	8.151798	-0.439271	0.718839	6.713245	-0.356906	0.602886	6.233728	-0.219616	0.457959	5.754210	-2.745360	3.344434	42.670922	0.000000	0.000000	7.373934	5.665207	-43.392313	78.696282	-52.119238	43.782686	30.175219	83.896225	-20.739006	3.105640	83.248657	36.450404	164.239105	0.084377	0.807873	-69.850083	-24.165406
